PathFileType	4	(X/Y/Z)	C:/Users/opensim2020/Desktop/walking_exp_matlab/subject01_walking06_straight_04.trc	
DataRate	CameraRate	NumFrames	NumMarkers	Units	OrigDataRate	OrigDataStartFrame	OrigNumFrames	
100.00	100.00	7	43	mm	100.00	2975	212	
Frame#	Time	LFHD			RFHD			LBHD			RBHD			C7			T10			CLAV			STRN			RBAK			LSHO			LUPA			LELB			LFRM			LWRA			LWRB			LFIN			RSHO			RUPA			RELB			RFRM			RWRA			RWRB			RFIN			LASI			RASI			LPSI			RPSI			LTHI			LKNE			LTIB			LANK			LHEE			LTOE			RTHI			RKNE			RTIB			RANK			RHEE			RTOE			*39			*40			*41			*42			
		X1	Y1	Z1	X2	Y2	Z2	X3	Y3	Z3	X4	Y4	Z4	X5	Y5	Z5	X6	Y6	Z6	X7	Y7	Z7	X8	Y8	Z8	X9	Y9	Z9	X10	Y10	Z10	X11	Y11	Z11	X12	Y12	Z12	X13	Y13	Z13	X14	Y14	Z14	X15	Y15	Z15	X16	Y16	Z16	X17	Y17	Z17	X18	Y18	Z18	X19	Y19	Z19	X20	Y20	Z20	X21	Y21	Z21	X22	Y22	Z22	X23	Y23	Z23	X24	Y24	Z24	X25	Y25	Z25	X26	Y26	Z26	X27	Y27	Z27	X28	Y28	Z28	X29	Y29	Z29	X30	Y30	Z30	X31	Y31	Z31	X32	Y32	Z32	X33	Y33	Z33	X34	Y34	Z34	X35	Y35	Z35	X36	Y36	Z36	X37	Y37	Z37	X38	Y38	Z38	X39	Y39	Z39	X40	Y40	Z40	X41	Y41	Z41	X42	Y42	Z42	X43	Y43	Z43	

186	1.850	-1050.32849	-656.62891	1648.33044	-1159.13306	-694.40161	1647.36206	-1084.02246	-539.80170	1613.00293	-1199.18762	-577.53186	1611.98877	-1115.79382	-497.38583	1411.82495	-1116.55078	-468.04010	1117.05518	-1101.68030	-644.34869	1345.23218	-1084.11499	-687.63489	1193.38208	-1187.35645	-452.49301	1212.98523	-947.55701	-569.26221	1380.83533	-849.50531	-563.37079	1204.51306	-828.78986	-586.23566	1053.27246	-808.63757	-679.76318	981.96332	-835.10736	-807.39124	932.73773	-806.64996	-768.17023	897.40833	-800.22363	-848.17767	871.60492	-1259.76880	-591.77692	1367.21472	-1351.57397	-510.07297	1172.08667	-1348.82104	-491.26511	1050.44214	-1378.30493	-488.79620	930.96399	-1359.23047	-538.45691	797.89240	-1397.82166	-494.82678	809.23846	-1395.96106	-513.03918	725.02429	-976.93036	-627.43280	917.71716	-1192.51721	-665.62939	916.41479	-1067.73401	-453.74213	927.26343	-1209.28162	-479.06516	922.01373	-934.85651	-522.85559	593.31580	-951.29608	-477.58331	462.73938	-949.28131	-361.26752	311.06647	-1003.79626	-251.91309	119.30763	-1056.50977	-200.18706	112.00779	-1004.18280	-372.33456	32.49745	-1267.76709	-696.60065	594.71179	-1243.67859	-753.02106	450.71368	-1260.46558	-752.33936	275.56793	-1228.79749	-800.58093	72.03434	-1181.09290	-762.16974	24.23128	-1221.09363	-947.30896	61.39369	-1140.20789	-681.15405	1682.75659	-3102.43042	1972.89612	1023.96704	-3138.15112	2013.09949	1022.26648			 
187	1.860	-1052.96509	-666.40125	1648.56506	-1161.69006	-704.57977	1647.41736	-1087.48865	-549.91199	1612.60596	-1202.00977	-587.87573	1611.49670	-1117.85071	-507.82971	1411.20813	-1118.39612	-479.95428	1115.97498	-1103.91736	-654.91077	1344.89441	-1085.97778	-698.84888	1193.47522	-1189.57703	-464.15906	1211.52087	-950.02930	-579.19690	1380.46094	-851.76337	-572.78998	1204.05811	-830.18945	-594.13208	1052.68115	-809.90619	-687.74182	981.00665	-836.67401	-814.95563	930.83875	-807.65564	-775.70447	895.97461	-801.80273	-856.10089	869.82990	-1262.34937	-603.01306	1366.48560	-1353.90076	-521.81659	1170.90051	-1351.20581	-503.19949	1049.16382	-1380.50928	-500.74188	929.59882	-1360.73877	-549.93964	796.60150	-1399.61621	-506.87161	807.97968	-1397.70789	-525.00549	723.91766	-978.29626	-639.86700	916.95929	-1193.86328	-677.74646	915.97522	-1068.99683	-465.77832	926.62231	-1211.34900	-491.66223	921.40747	-935.98773	-535.34430	592.17444	-951.86768	-489.74576	461.77289	-949.03967	-369.99457	312.84250	-1002.37952	-255.58818	123.60886	-1055.06494	-204.03098	118.35062	-1004.01929	-372.58340	32.36354	-1266.78979	-708.30835	595.05939	-1244.09741	-763.38831	450.10867	-1258.34521	-761.03442	275.95718	-1229.15369	-807.45343	72.30306	-1182.57605	-765.11633	26.49506	-1218.21643	-953.27643	56.14426	-1142.96191	-690.91467	1682.59692	-3102.50391	1972.99756	1023.90063	-3138.32349	2013.10193	1022.37268			 
188	1.870	-1055.75549	-676.34698	1649.37878	-1164.19434	-714.83868	1648.01196	-1090.01453	-559.90967	1613.11890	-1204.86011	-598.41693	1611.70459	-1120.65198	-518.44000	1411.20117	-1119.95349	-491.80264	1115.67773	-1106.21899	-665.75299	1345.53491	-1087.96545	-709.85681	1193.97046	-1191.78027	-475.76947	1210.83777	-952.15601	-589.08136	1380.35559	-853.92578	-582.04614	1203.82251	-831.91986	-602.76581	1052.34155	-811.24615	-695.23621	979.93604	-838.18823	-821.99860	928.69690	-808.58484	-782.61829	894.38483	-803.18732	-862.41650	867.57202	-1264.95349	-614.16736	1366.06848	-1356.40649	-533.92438	1169.84949	-1353.65869	-515.45221	1048.05591	-1382.90112	-513.19159	928.31976	-1362.12659	-561.96661	795.39728	-1401.24060	-519.00977	806.67407	-1399.33240	-537.34900	722.96179	-979.92535	-652.33691	916.39917	-1195.24036	-689.83014	915.88336	-1069.99255	-477.87595	926.20831	-1212.68750	-504.16431	921.36096	-937.50470	-548.69580	591.16187	-952.39465	-502.80362	460.92471	-948.90594	-379.36472	314.93826	-1001.23804	-260.01007	128.51466	-1053.78589	-208.96909	125.45577	-1003.81708	-373.28201	32.51717	-1267.79126	-719.18073	596.14111	-1244.44995	-774.73401	452.01385	-1260.08362	-771.62103	278.28052	-1229.67529	-811.50983	71.54758	-1183.74487	-766.69965	27.78147	-1214.95251	-956.20367	48.98080	-1145.62366	-700.64728	1683.04443	-3103.22144	1972.69763	1024.59412	-3140.09741	2012.67029	1022.07349			 
189	1.880	-1058.37109	-686.26477	1650.02917	-1166.50940	-725.32501	1648.68250	-1093.04309	-570.09204	1613.92590	-1207.69434	-609.13568	1612.39893	-1123.35803	-529.26172	1411.71448	-1121.37708	-503.55194	1115.84705	-1108.32056	-676.10907	1346.28210	-1090.11072	-721.13477	1194.72327	-1194.20691	-487.13498	1210.75073	-954.18787	-599.36310	1380.68372	-856.25653	-591.02832	1203.97034	-833.72430	-610.43494	1052.49194	-812.63580	-702.22467	978.88239	-839.71198	-828.43475	926.28680	-809.62592	-788.94330	892.68011	-804.67657	-868.53461	865.11615	-1267.43604	-625.22595	1365.99255	-1359.00195	-546.20935	1169.11377	-1356.11060	-527.97632	1047.24084	-1384.76636	-525.73407	927.41309	-1363.54260	-574.64899	794.73291	-1402.86096	-531.73724	805.63873	-1400.95190	-550.18250	722.35480	-981.54303	-664.94080	916.13300	-1196.64465	-701.85773	916.44421	-1070.55701	-490.06848	926.01105	-1213.64209	-515.71906	922.14630	-938.70331	-562.88019	590.46582	-952.77441	-516.89282	460.30945	-948.54993	-389.84659	317.56091	-1000.06030	-266.12204	133.85997	-1052.72144	-214.94505	133.34381	-1003.69281	-373.91711	32.56230	-1270.67554	-728.73511	597.02063	-1244.61584	-786.34222	453.84637	-1261.85352	-782.44043	279.90881	-1230.40442	-813.58905	71.48061	-1185.40820	-767.32245	29.41741	-1212.97461	-957.93262	42.75832	-1148.23254	-711.05060	1683.98242	-3102.13428	1972.98584	1024.18176	-3140.34253	2012.58057	1022.01605			 
190	1.890	-1060.85815	-696.20459	1650.83398	-1168.77795	-735.77844	1649.43872	-1096.05298	-580.19720	1614.70288	-1210.19385	-619.68756	1613.07507	-1126.72546	-540.53003	1412.59937	-1122.72803	-515.16595	1116.15076	-1110.65564	-686.57422	1346.80383	-1092.27734	-732.65576	1195.67200	-1196.67383	-498.47632	1211.09314	-956.44971	-609.77301	1381.18518	-858.54529	-599.69336	1204.49084	-835.63501	-618.34802	1052.72144	-814.19812	-709.00476	978.21436	-841.24396	-834.31256	923.69177	-810.63849	-794.47699	890.75867	-806.07080	-873.82184	862.28510	-1269.84790	-636.13586	1366.22961	-1361.53992	-558.57471	1168.63989	-1358.39673	-540.64185	1046.75427	-1386.62085	-538.84082	926.87616	-1364.98547	-587.64886	794.32129	-1404.37732	-544.70526	805.24323	-1402.57825	-563.38519	722.01202	-983.32788	-677.46820	916.16345	-1198.05896	-713.66748	917.52704	-1070.75122	-502.17715	926.15649	-1214.14355	-527.39093	923.85840	-939.73669	-577.76477	589.88263	-952.81073	-532.51245	459.85800	-948.24957	-401.26395	320.46265	-998.86365	-272.87097	139.92783	-1051.90344	-222.72472	141.88112	-1003.48303	-374.70502	32.53522	-1273.01892	-737.71429	598.14716	-1244.89990	-797.27258	455.08383	-1263.43164	-791.48273	280.41141	-1230.20715	-816.37347	71.48057	-1186.23987	-768.37982	29.65626	-1213.00671	-960.07684	39.58775	-1150.57422	-721.58215	1684.77136	-3102.06982	1973.03687	1024.09009	-3140.32959	2012.59094	1022.04486			 
191	1.900	-1063.17334	-706.23010	1651.82739	-1170.99304	-746.14935	1650.30811	-1099.47839	-590.50024	1615.26428	-1212.87830	-630.34460	1613.74915	-1128.09082	-551.19904	1413.01160	-1124.10193	-526.46576	1116.63074	-1112.87708	-698.06335	1348.01343	-1094.36035	-744.14435	1196.82922	-1198.97070	-509.74069	1211.58630	-958.73108	-620.44879	1381.93042	-860.88068	-608.28625	1205.20398	-837.51996	-625.30792	1053.46863	-815.81702	-715.31403	977.63501	-842.80853	-839.58557	920.86646	-811.73041	-799.40619	888.78284	-807.50720	-878.34534	858.92889	-1272.14893	-646.97864	1366.76086	-1363.99304	-570.92444	1168.49500	-1360.54871	-553.37177	1046.59131	-1388.50134	-552.16675	926.70343	-1366.51416	-601.08679	794.45422	-1406.37793	-558.32037	805.13733	-1404.13892	-577.08575	721.98584	-985.36523	-689.86395	916.40979	-1199.57251	-725.19843	919.17334	-1070.82874	-514.12988	926.61871	-1214.56689	-538.50183	925.94336	-940.37976	-593.31342	589.45160	-952.48022	-549.26636	459.34592	-947.77173	-413.92746	323.56345	-997.64423	-280.92245	146.62178	-1051.43958	-232.40320	150.96635	-1003.44202	-375.60556	32.55520	-1273.74756	-747.77008	599.63483	-1245.79309	-807.21387	455.05557	-1264.88257	-798.69318	279.68079	-1230.23181	-818.08374	70.98054	-1186.11365	-769.51862	30.09504	-1214.31494	-961.36371	37.29781	-1152.80591	-732.18585	1685.69897	-3102.00537	1973.13965	1023.69348	-3140.26660	2012.60413	1022.02930			 
192	1.910	-1065.55212	-716.17407	1652.83020	-1173.16711	-756.42194	1651.34644	-1102.20581	-600.65942	1615.91663	-1215.46118	-640.85840	1614.36816	-1130.30396	-561.74951	1413.47278	-1125.42017	-537.54004	1117.36877	-1114.96692	-708.35455	1348.71545	-1096.35413	-755.52032	1198.09509	-1201.06873	-520.95087	1212.17871	-961.01257	-631.17236	1382.85046	-863.12921	-616.93036	1206.06177	-839.57660	-632.87811	1054.54724	-817.49323	-721.17188	977.16925	-844.37640	-844.32788	917.76666	-813.13214	-803.67657	886.80188	-808.57892	-882.08655	855.66229	-1274.30359	-657.90363	1367.50159	-1366.29822	-583.25616	1168.63416	-1362.57874	-566.07678	1046.79871	-1390.49951	-565.74493	927.03900	-1368.04626	-614.90656	794.89050	-1407.76758	-572.35675	805.40686	-1405.64270	-591.32727	722.29370	-987.60577	-702.11200	916.98328	-1201.21948	-736.44165	921.02844	-1070.86389	-525.99512	927.35944	-1214.86292	-549.57031	928.08813	-940.81049	-609.48602	588.96686	-951.46124	-567.44995	458.77878	-947.05920	-428.08093	326.84763	-996.56689	-290.59216	153.65840	-1051.18506	-243.92465	160.36655	-1003.65997	-376.91733	32.83583	-1273.92432	-759.28088	601.31982	-1247.13513	-816.14758	454.62039	-1266.53210	-804.30817	278.66580	-1230.22791	-819.71124	70.83362	-1186.73865	-770.05896	30.90051	-1214.42090	-962.41980	35.55105	-1154.92810	-742.40662	1686.73010	-3102.18604	1972.91309	1023.98059	-3140.33618	2012.63928	1022.00092			 
